<svg aria-hidden="true" width="1340" height="108" viewBox="0 0 1340 108" fill="none" xmlns="http://www.w3.org/2000/svg">
<path d="M1328.95 27.0457C1328.95 24.2617 1328.37 21.8053 1327.23 19.6764C1326.16 17.5475 1324.69 15.7871 1322.81 14.3951C1320.92 13.0031 1318.75 11.9387 1316.3 11.2017C1313.84 10.4648 1311.26 10.0963 1308.56 10.0963C1306.18 10.0963 1303.93 10.4239 1301.8 11.0789C1299.67 11.6521 1297.75 12.5118 1296.03 13.6582C1294.39 14.8045 1293.08 16.2374 1292.1 17.9569C1291.12 19.5945 1290.63 21.5187 1290.63 23.7295V24.4664C1290.63 26.841 1291.12 28.888 1292.1 30.6075C1293.08 32.2451 1294.52 33.678 1296.4 34.9062C1298.36 36.0525 1300.78 37.0351 1303.65 37.8539C1306.51 38.5908 1309.87 39.2459 1313.72 39.819C1322.72 41.211 1329.36 43.8721 1333.61 47.8024C1337.87 51.6508 1340 56.8502 1340 63.4007V64.8745C1340 68.5592 1339.35 71.9572 1338.04 75.0687C1336.81 78.0983 1334.92 80.7185 1332.39 82.9292C1329.93 85.14 1326.86 86.8595 1323.17 88.0877C1319.49 89.3159 1315.23 89.93 1310.4 89.93C1304.91 89.93 1300.04 89.1522 1295.78 87.5965C1291.61 85.9588 1288.09 83.748 1285.22 80.9641C1282.44 78.0983 1280.31 74.7821 1278.84 71.0156C1277.36 67.1672 1276.62 62.9913 1276.62 58.4878V54.8032H1286.94V57.7509C1286.94 65.2839 1288.99 70.9337 1293.08 74.7002C1297.26 78.4667 1303.03 80.35 1310.4 80.35C1316.79 80.35 1321.58 78.958 1324.77 76.1741C1328.05 73.3083 1329.68 69.5418 1329.68 64.8745V64.1376C1329.68 59.6342 1328 56.1952 1324.65 53.8207C1321.37 51.4461 1316.01 49.7266 1308.56 48.6622C1304.22 48.089 1300.29 47.2293 1296.77 46.0829C1293.33 44.8547 1290.38 43.299 1287.92 41.4157C1285.47 39.4506 1283.58 37.117 1282.27 34.4149C1280.96 31.7129 1280.31 28.5195 1280.31 24.8349V23.361C1280.31 20.0039 1281.01 16.9334 1282.4 14.1494C1283.79 11.3655 1285.71 8.95001 1288.17 6.90299C1290.71 4.85598 1293.7 3.30024 1297.14 2.23579C1300.66 1.08946 1304.5 0.516296 1308.68 0.516296C1313.51 0.516296 1317.81 1.21228 1321.58 2.60426C1325.43 3.99623 1328.66 5.87949 1331.28 8.25403C1333.9 10.5467 1335.87 13.2897 1337.18 16.483C1338.57 19.5945 1339.26 22.8697 1339.26 26.3087V31.4672H1328.95V27.0457Z" fill="white"/>
<path d="M1207.44 2.23578H1259.51V11.8158H1217.76V40.3103H1258.78V49.8904H1217.76V78.6305H1260.25V88.2105H1207.44V2.23578Z" fill="white"/>
<path d="M1185.17 88.2105H1174.85V59.4704C1174.85 57.3415 1174.36 55.7039 1173.38 54.5576C1172.4 53.4112 1170.68 52.8381 1168.22 52.8381H1141.45V88.2105H1131.13V2.23578H1161.83C1166.26 2.23578 1170.1 2.89082 1173.38 4.20092C1176.66 5.42913 1179.36 7.10769 1181.49 9.23659C1183.7 11.3655 1185.33 13.8628 1186.4 16.7287C1187.55 19.5126 1188.12 22.4603 1188.12 25.5718V29.2564C1188.12 32.4498 1187.22 35.6431 1185.42 38.8365C1183.7 42.0298 1180.99 44.4862 1177.31 46.2057V47.6796C1179.77 48.089 1181.69 49.0715 1183.08 50.6273C1184.47 52.183 1185.17 54.3938 1185.17 57.2596V88.2105ZM1141.45 43.258H1160.61C1166.42 43.258 1170.72 42.0298 1173.5 39.5734C1176.37 37.0351 1177.8 33.3505 1177.8 28.5195V26.3087C1177.8 21.969 1176.37 18.4891 1173.5 15.8689C1170.72 13.1669 1166.42 11.8158 1160.61 11.8158H1141.45V43.258Z" fill="white"/>
<path d="M1048.8 2.23578H1059.86L1082.33 83.789H1083.81L1106.28 2.23578H1117.34L1093.02 88.2105H1073.12L1048.8 2.23578Z" fill="white"/>
<path d="M988.705 2.23578V59.2248C988.705 66.1846 990.302 71.4659 993.495 75.0687C996.77 78.5896 1001.56 80.35 1007.87 80.35C1014.17 80.35 1018.92 78.5896 1022.11 75.0687C1025.39 71.4659 1027.03 66.1846 1027.03 59.2248V2.23578H1037.34V59.2248C1037.34 69.2142 1034.72 76.8291 1029.48 82.0695C1024.24 87.3098 1017.04 89.93 1007.87 89.93C998.695 89.93 991.489 87.3098 986.249 82.0695C981.008 76.8291 978.388 69.2142 978.388 59.2248V2.23578H988.705Z" fill="white"/>
<path d="M906.623 2.23578H958.699V11.8158H916.94V40.3103H957.962V49.8904H916.94V78.6305H959.436V88.2105H906.623V2.23578Z" fill="white"/>
<path d="M827.243 35.6431C827.243 24.5074 829.904 15.8689 835.227 9.72788C840.549 3.58682 847.959 0.516296 857.457 0.516296C866.955 0.516296 874.366 3.58682 879.688 9.72788C885.01 15.8689 887.671 24.5074 887.671 35.6431V54.8032C887.671 66.2665 885.01 74.9868 879.688 80.9641C874.366 86.9414 866.955 89.93 857.457 89.93C847.959 89.93 840.549 86.9414 835.227 80.9641C829.904 74.9868 827.243 66.2665 827.243 54.8032V35.6431ZM857.457 80.35C864.089 80.35 869.043 78.0983 872.319 73.5948C875.676 69.0095 877.354 62.5 877.354 54.0663V36.3801C877.354 28.5195 875.676 22.1738 872.319 17.3428C869.043 12.5118 864.089 10.0963 857.457 10.0963C850.825 10.0963 845.83 12.5118 842.473 17.3428C839.198 22.1738 837.56 28.5195 837.56 36.3801V54.0663C837.56 62.5 839.198 69.0095 842.473 73.5948C845.83 78.0983 850.825 80.35 857.457 80.35Z" fill="white"/>
<path d="M799.08 83.789H800.554V2.23578H810.871V88.2105H790.237L765.427 6.65734H763.953V88.2105H753.636V2.23578H774.27L799.08 83.789Z" fill="white"/>
<path d="M725.473 66.8397H688.626L682.362 88.2105H671.309L697.347 2.23578H716.752L742.79 88.2105H731.737L725.473 66.8397ZM706.313 6.65734L691.451 57.2596H722.648L707.786 6.65734H706.313Z" fill="white"/>
<path d="M599.912 2.23578H619.563L631.109 83.789H632.583L644.128 2.23578H663.779V88.2105H654.199V6.65734H652.725L641.18 88.2105H622.511L610.966 6.65734H609.492V88.2105H599.912V2.23578Z" fill="white"/>
<path d="M455.399 2.23578H507.476V11.8158H465.716V40.3103H506.739V49.8904H465.716V78.6305H508.212V88.2105H455.399V2.23578Z" fill="white"/>
<path d="M387.074 2.23578V59.2248C387.074 66.1846 388.67 71.4659 391.864 75.0687C395.139 78.5896 399.929 80.35 406.234 80.35C412.538 80.35 417.288 78.5896 420.481 75.0687C423.756 71.4659 425.394 66.1846 425.394 59.2248V2.23578H435.711V59.2248C435.711 69.2142 433.091 76.8291 427.85 82.0695C422.61 87.3098 415.404 89.93 406.234 89.93C397.063 89.93 389.857 87.3098 384.617 82.0695C379.377 76.8291 376.757 69.2142 376.757 59.2248V2.23578H387.074Z" fill="white"/>
<path d="M300.816 35.6431C300.816 24.5074 303.477 15.8689 308.799 9.72788C314.121 3.58682 321.532 0.516296 331.03 0.516296C340.528 0.516296 347.938 3.58682 353.26 9.72788C358.583 15.8689 361.244 24.5074 361.244 35.6431V54.8032C361.244 65.2839 358.992 73.513 354.488 79.4903C350.067 85.3857 343.844 88.7837 335.82 89.6844V94.8429C335.82 97.2993 336.925 98.5275 339.136 98.5275H349.453V107.371H335.697C332.913 107.371 330.62 106.47 328.819 104.669C327.099 102.867 326.24 100.575 326.24 97.7906V89.6844C318.133 88.7018 311.87 85.2629 307.448 79.3674C303.026 73.472 300.816 65.2839 300.816 54.8032V35.6431ZM331.03 80.35C337.662 80.35 342.616 78.0983 345.891 73.5948C349.248 69.0095 350.927 62.5 350.927 54.0663V36.3801C350.927 28.5195 349.248 22.1738 345.891 17.3428C342.616 12.5118 337.662 10.0963 331.03 10.0963C324.397 10.0963 319.403 12.5118 316.045 17.3428C312.77 22.1738 311.133 28.5195 311.133 36.3801V54.0663C311.133 62.5 312.77 69.0095 316.045 73.5948C319.403 78.0983 324.397 80.35 331.03 80.35Z" fill="white"/>
<path d="M228.56 2.23578H283.092V11.8158H260.984V78.6305H283.092V88.2105H228.56V78.6305H250.667V11.8158H228.56V2.23578Z" fill="white"/>
<path d="M153.724 2.23578H164.041V78.6305H208.993V88.2105H153.724V2.23578Z" fill="white"/>
<path d="M74.8354 78.6305H82.2047V11.8158H74.8354V2.23578H109.594C113.688 2.23578 117.291 2.80894 120.402 3.95527C123.595 5.1016 126.257 6.65734 128.385 8.62248C130.596 10.5876 132.234 12.9622 133.298 15.7461C134.445 18.4482 135.018 21.3959 135.018 24.5892V26.0631C135.018 28.4376 134.649 30.6074 133.912 32.5726C133.175 34.5377 132.152 36.2982 130.842 37.8539C129.532 39.4096 127.976 40.7607 126.175 41.907C124.455 42.9714 122.572 43.7902 120.525 44.3634V45.8373C124.619 46.9836 128.058 49.1944 130.842 52.4696C133.626 55.663 135.018 59.5932 135.018 64.2604V65.7343C135.018 68.9276 134.445 71.9163 133.298 74.7002C132.234 77.4023 130.596 79.7768 128.385 81.8238C126.257 83.789 123.595 85.3447 120.402 86.491C117.291 87.6374 113.688 88.2105 109.594 88.2105H74.8354V78.6305ZM92.5217 78.6305H108.857C113.688 78.6305 117.618 77.4432 120.648 75.0687C123.677 72.6123 125.192 69.2552 125.192 64.9974V64.2604C125.192 59.8389 123.759 56.3589 120.893 53.8206C118.028 51.2005 114.138 49.8904 109.225 49.8904H92.5217V78.6305ZM92.5217 40.3103H109.225C114.138 40.3103 118.028 39.0412 120.893 36.5029C123.759 33.9646 125.192 30.4846 125.192 26.0631V25.3261C125.192 21.1502 123.677 17.875 120.648 15.5005C117.618 13.044 113.688 11.8158 108.857 11.8158H92.5217V40.3103Z" fill="white"/>
<path d="M0 35.6431C0 24.5074 2.66112 15.8689 7.98337 9.72788C13.3056 3.58682 20.7158 0.516296 30.214 0.516296C39.7121 0.516296 47.1224 3.58682 52.4446 9.72788C57.7668 15.8689 60.428 24.5074 60.428 35.6431V54.8032C60.428 66.2665 57.7668 74.9868 52.4446 80.9641C47.1224 86.9414 39.7121 89.93 30.214 89.93C20.7158 89.93 13.3056 86.9414 7.98337 80.9641C2.66112 74.9868 0 66.2665 0 54.8032V35.6431ZM30.214 80.35C36.8463 80.35 41.8001 78.0983 45.0753 73.5948C48.4324 69.0095 50.111 62.5 50.111 54.0663V36.3801C50.111 28.5195 48.4324 22.1738 45.0753 17.3428C41.8001 12.5118 36.8463 10.0963 30.214 10.0963C23.5816 10.0963 18.5869 12.5118 15.2298 17.3428C11.9546 22.1738 10.317 28.5195 10.317 36.3801V54.0663C10.317 62.5 11.9546 69.0095 15.2298 73.5948C18.5869 78.0983 23.5816 80.35 30.214 80.35Z" fill="white"/>
</svg>
