<svg width="13" height="9" viewBox="0 0 13 9" fill="none" xmlns="http://www.w3.org/2000/svg">
<path d="M0.875 1.30079C1.08805 1.3031 1.3011 2.36951 1.51415 4.5C1.94071 8.76562 2.36727 8.76562 2.79384 4.5C3.2204 0.234375 3.64696 0.234375 4.07352 4.5C4.50009 8.76562 4.92665 8.76562 5.35321 4.5C5.77977 0.234375 6.20634 0.234375 6.6329 4.5C7.05946 8.76562 7.48602 8.76562 7.91259 4.5C8.33915 0.234375 8.76571 0.234375 9.19227 4.5C9.61884 8.76562 10.0454 8.76562 10.472 4.5C10.8985 0.234375 11.3251 0.234375 11.7516 4.5C11.9647 6.63072 12.1778 7.69712 12.3909 7.69922" stroke="#1E3F84" stroke-opacity="0.5" stroke-width="0.75" stroke-linecap="round"/>
</svg>
